<?xml version="1.0" encoding="UTF-8"?>
<svg width="17px" height="17px" viewBox="0 0 17 17" version="1.1" xmlns="http://www.w3.org/2000/svg" xmlns:xlink="http://www.w3.org/1999/xlink">
    <!-- Generator: Sketch 50.2 (55047) - http://www.bohemiancoding.com/sketch -->
    <title>Shape</title>
    <desc>Created with Sketch.</desc>
    <defs></defs>
    <g id="Page-1" stroke="none" stroke-width="1" fill="none" fill-rule="evenodd">
        <path d="M16.958,15.527 L11.75,10.32 C12.533,9.247 13,7.93 13,6.5 C13,2.91 10.09,0 6.5,0 C2.91,0 0,2.91 0,6.5 C0,10.09 2.91,13 6.5,13 C7.938,13 9.263,12.527 10.339,11.737 L15.544,16.941 L16.958,15.527 Z M6.5,11 C4.019,11 2,8.981 2,6.5 C2,4.019 4.019,2 6.5,2 C8.981,2 11,4.019 11,6.5 C11,8.981 8.981,11 6.5,11 Z" id="Shape" fill="#FFFFFF" fill-rule="nonzero"></path>
    </g>
</svg>